<svg width="49" height="38" viewBox="0 0 49 38" fill="none" xmlns="http://www.w3.org/2000/svg">
<rect y="5" width="13.0625" height="28.6" fill="#90491F"/>
<path fill-rule="evenodd" clip-rule="evenodd" d="M32.1584 24.9375C29.7681 31.187 23.7148 35.625 16.625 35.625C7.44327 35.625 0 28.1817 0 19C0 9.81827 7.44327 2.375 16.625 2.375C24.1562 2.375 30.5177 7.38271 32.5615 14.25H41.5625C44.8417 14.25 47.5 16.6425 47.5 19.5938C47.5 22.545 44.8417 24.9375 41.5625 24.9375H32.1584Z" fill="#A65221"/>
<rect x="7.125" width="17.8125" height="3.5625" rx="1.1875" fill="#833D15"/>
<rect x="7.125" y="34.4375" width="17.8125" height="3.5625" rx="1.1875" fill="#833D15"/>
<circle cx="26.6367" cy="26.125" r="4.15625" fill="#D9D9D9"/>
<ellipse cx="28.418" cy="26.125" rx="2.375" ry="2.96875" fill="#402B12"/>
<ellipse cx="29.6055" cy="26.125" rx="1.1875" ry="1.78125" fill="#25190A"/>
<path d="M25.6603 21.4617C20.2233 22.8176 19.691 28.8464 25.6166 30.7475C25.7974 30.8056 25.9652 30.6323 25.9064 30.4517C24.6766 26.6739 24.8549 25.4528 25.9357 21.7524C25.9858 21.5809 25.8337 21.4184 25.6603 21.4617Z" fill="#833D15"/>
<circle cx="26.6367" cy="11.875" r="4.15625" fill="#D9D9D9"/>
<ellipse cx="28.418" cy="11.875" rx="2.375" ry="2.96875" fill="#402B12"/>
<ellipse cx="29.6055" cy="11.875" rx="1.1875" ry="1.78125" fill="#25190A"/>
<path d="M25.6603 7.21167C20.2233 8.56755 19.691 14.5964 25.6166 16.4975C25.7974 16.5556 25.9652 16.3823 25.9064 16.2017C24.6766 12.4239 24.8549 11.2028 25.9357 7.50238C25.9858 7.33086 25.8337 7.16843 25.6603 7.21167Z" fill="#833D15"/>
<rect x="45.125" y="16.8125" width="3.5625" height="4.75" rx="1.78125" fill="#2C1F0F"/>
</svg>
