<svg width="34" height="20" viewBox="0 0 34 20" fill="none" xmlns="http://www.w3.org/2000/svg">
<mask id="path-1-outside-1_19_417" maskUnits="userSpaceOnUse" x="0" y="0" width="35" height="20" fill="black">
<rect fill="white" width="35" height="20"/>
<path fill-rule="evenodd" clip-rule="evenodd" d="M10.4138 6.24593C10.4328 6.07368 10.4426 5.89864 10.4426 5.72131C10.4426 3.1138 8.32882 1 5.72131 1C3.1138 1 1 3.1138 1 5.72131C1 7.36361 1.83853 8.81007 3.11081 9.65588C1.83853 10.5017 1 11.9482 1 13.5905C1 16.198 3.1138 18.3118 5.72131 18.3118C8.32882 18.3118 10.4426 16.198 10.4426 13.5905C10.4426 13.413 10.4328 13.2379 10.4138 13.0656H23.5874C23.5684 13.2379 23.5586 13.413 23.5586 13.5905C23.5586 16.198 25.6724 18.3118 28.2799 18.3118C30.8874 18.3118 33.0012 16.198 33.0012 13.5905C33.0012 11.9482 32.1627 10.5017 30.8904 9.65588C32.1627 8.81007 33.0012 7.36361 33.0012 5.72131C33.0012 3.1138 30.8874 1 28.2799 1C25.6724 1 23.5586 3.1138 23.5586 5.72131C23.5586 5.89864 23.5684 6.07368 23.5874 6.24593H10.4138Z"/>
</mask>
<path fill-rule="evenodd" clip-rule="evenodd" d="M10.4138 6.24593C10.4328 6.07368 10.4426 5.89864 10.4426 5.72131C10.4426 3.1138 8.32882 1 5.72131 1C3.1138 1 1 3.1138 1 5.72131C1 7.36361 1.83853 8.81007 3.11081 9.65588C1.83853 10.5017 1 11.9482 1 13.5905C1 16.198 3.1138 18.3118 5.72131 18.3118C8.32882 18.3118 10.4426 16.198 10.4426 13.5905C10.4426 13.413 10.4328 13.2379 10.4138 13.0656H23.5874C23.5684 13.2379 23.5586 13.413 23.5586 13.5905C23.5586 16.198 25.6724 18.3118 28.2799 18.3118C30.8874 18.3118 33.0012 16.198 33.0012 13.5905C33.0012 11.9482 32.1627 10.5017 30.8904 9.65588C32.1627 8.81007 33.0012 7.36361 33.0012 5.72131C33.0012 3.1138 30.8874 1 28.2799 1C25.6724 1 23.5586 3.1138 23.5586 5.72131C23.5586 5.89864 23.5684 6.07368 23.5874 6.24593H10.4138Z" fill="white"/>
<path d="M10.4138 6.24593L9.41986 6.13605L9.29716 7.24593H10.4138V6.24593ZM3.11081 9.65588L3.66444 10.4886L4.91708 9.65588L3.66444 8.82312L3.11081 9.65588ZM10.4138 13.0656V12.0656H9.29708L9.41984 13.1755L10.4138 13.0656ZM23.5874 13.0656L24.5814 13.1755L24.7041 12.0656H23.5874V13.0656ZM30.8904 9.65588L30.3368 8.82312L29.0841 9.65588L30.3368 10.4886L30.8904 9.65588ZM23.5874 6.24593V7.24593H24.7041L24.5814 6.13604L23.5874 6.24593ZM9.44262 5.72131C9.44262 5.86185 9.43488 6.00021 9.41986 6.13605L11.4078 6.35581C11.4308 6.14714 11.4426 5.93542 11.4426 5.72131H9.44262ZM5.72131 2C7.77654 2 9.44262 3.66609 9.44262 5.72131H11.4426C11.4426 2.56152 8.8811 0 5.72131 0V2ZM2 5.72131C2 3.66609 3.66609 2 5.72131 2V0C2.56152 0 0 2.56152 0 5.72131H2ZM3.66444 8.82312C2.6591 8.15477 2 7.01479 2 5.72131H0C0 7.71243 1.01796 9.46536 2.55718 10.4886L3.66444 8.82312ZM2 13.5905C2 12.297 2.6591 11.157 3.66444 10.4886L2.55718 8.82312C1.01796 9.84641 0 11.5993 0 13.5905H2ZM5.72131 17.3118C3.66609 17.3118 2 15.6457 2 13.5905H0C0 16.7502 2.56152 19.3118 5.72131 19.3118V17.3118ZM9.44262 13.5905C9.44262 15.6457 7.77654 17.3118 5.72131 17.3118V19.3118C8.8811 19.3118 11.4426 16.7502 11.4426 13.5905H9.44262ZM9.41984 13.1755C9.43487 13.3114 9.44262 13.4498 9.44262 13.5905H11.4426C11.4426 13.3762 11.4308 13.1644 11.4077 12.9557L9.41984 13.1755ZM23.5874 12.0656H10.4138V14.0656H23.5874V12.0656ZM24.5586 13.5905C24.5586 13.4498 24.5663 13.3114 24.5814 13.1755L22.5935 12.9557C22.5704 13.1644 22.5586 13.3762 22.5586 13.5905H24.5586ZM28.2799 17.3118C26.2247 17.3118 24.5586 15.6457 24.5586 13.5905H22.5586C22.5586 16.7502 25.1201 19.3118 28.2799 19.3118V17.3118ZM32.0012 13.5905C32.0012 15.6457 30.3351 17.3118 28.2799 17.3118V19.3118C31.4397 19.3118 34.0012 16.7502 34.0012 13.5905H32.0012ZM30.3368 10.4886C31.3421 11.157 32.0012 12.297 32.0012 13.5905H34.0012C34.0012 11.5993 32.9833 9.84641 31.444 8.82312L30.3368 10.4886ZM32.0012 5.72131C32.0012 7.01479 31.3421 8.15477 30.3368 8.82312L31.444 10.4886C32.9833 9.46536 34.0012 7.71243 34.0012 5.72131H32.0012ZM28.2799 2C30.3351 2 32.0012 3.66609 32.0012 5.72131H34.0012C34.0012 2.56152 31.4397 0 28.2799 0V2ZM24.5586 5.72131C24.5586 3.66609 26.2247 2 28.2799 2V0C25.1201 0 22.5586 2.56152 22.5586 5.72131H24.5586ZM24.5814 6.13604C24.5663 6.00022 24.5586 5.86186 24.5586 5.72131H22.5586C22.5586 5.93542 22.5704 6.14714 22.5935 6.35581L24.5814 6.13604ZM10.4138 7.24593H23.5874V5.24593H10.4138V7.24593Z" fill="#D2CBB9" mask="url(#path-1-outside-1_19_417)"/>
</svg>
