<svg width="181" height="29" viewBox="0 0 181 29" fill="none" xmlns="http://www.w3.org/2000/svg">
<g filter="url(#filter0_d_19_425)">
<path d="M19.436 15.288C19.436 16.56 19.22 17.732 18.788 18.804C18.364 19.868 17.76 20.784 16.976 21.552C16.2 22.32 15.264 22.92 14.168 23.352C13.072 23.784 11.856 24 10.52 24H3.824V6.588H10.52C11.856 6.588 13.072 6.804 14.168 7.236C15.264 7.668 16.2 8.272 16.976 9.048C17.76 9.816 18.364 10.732 18.788 11.796C19.22 12.86 19.436 14.024 19.436 15.288ZM15.74 15.288C15.74 14.376 15.62 13.556 15.38 12.828C15.14 12.1 14.796 11.484 14.348 10.98C13.9 10.476 13.352 10.088 12.704 9.816C12.064 9.544 11.336 9.408 10.52 9.408H7.448V21.18H10.52C11.336 21.18 12.064 21.048 12.704 20.784C13.352 20.512 13.9 20.124 14.348 19.62C14.796 19.108 15.14 18.488 15.38 17.76C15.62 17.032 15.74 16.208 15.74 15.288ZM30.4252 11.436C31.3532 11.436 32.1972 11.584 32.9572 11.88C33.7172 12.176 34.3692 12.6 34.9132 13.152C35.4572 13.696 35.8772 14.36 36.1732 15.144C36.4692 15.928 36.6172 16.812 36.6172 17.796C36.6172 18.78 36.4692 19.668 36.1732 20.46C35.8772 21.244 35.4572 21.912 34.9132 22.464C34.3692 23.016 33.7172 23.44 32.9572 23.736C32.1972 24.032 31.3532 24.18 30.4252 24.18C29.4892 24.18 28.6372 24.032 27.8692 23.736C27.1092 23.44 26.4572 23.016 25.9132 22.464C25.3692 21.912 24.9452 21.244 24.6412 20.46C24.3452 19.668 24.1972 18.78 24.1972 17.796C24.1972 16.812 24.3452 15.928 24.6412 15.144C24.9452 14.36 25.3692 13.696 25.9132 13.152C26.4572 12.6 27.1092 12.176 27.8692 11.88C28.6372 11.584 29.4892 11.436 30.4252 11.436ZM30.4252 21.696C31.3692 21.696 32.0692 21.372 32.5252 20.724C32.9812 20.068 33.2092 19.096 33.2092 17.808C33.2092 16.528 32.9812 15.564 32.5252 14.916C32.0692 14.26 31.3692 13.932 30.4252 13.932C29.4572 13.932 28.7452 14.26 28.2892 14.916C27.8332 15.564 27.6052 16.528 27.6052 17.808C27.6052 19.096 27.8332 20.068 28.2892 20.724C28.7452 21.372 29.4572 21.696 30.4252 21.696ZM52.9063 24H49.7263C49.4863 24 49.2903 23.94 49.1383 23.82C48.9943 23.7 48.8783 23.56 48.7903 23.4L46.3543 19.332C46.2823 19.604 46.1783 19.844 46.0423 20.052L43.9543 23.4C43.8583 23.552 43.7383 23.692 43.5943 23.82C43.4583 23.94 43.2823 24 43.0663 24H40.1143L44.3143 17.616L40.2823 11.628H43.4623C43.7023 11.628 43.8783 11.66 43.9903 11.724C44.1023 11.788 44.2023 11.892 44.2903 12.036L46.7143 15.96C46.7543 15.824 46.8063 15.688 46.8703 15.552C46.9343 15.408 47.0103 15.268 47.0983 15.132L48.9583 12.096C49.1503 11.784 49.3983 11.628 49.7023 11.628H52.7383L48.7063 17.472L52.9063 24ZM61.0357 11.628V24H57.7237V11.628H61.0357ZM61.4317 8.112C61.4317 8.392 61.3757 8.652 61.2637 8.892C61.1517 9.132 60.9997 9.344 60.8077 9.528C60.6237 9.712 60.4037 9.856 60.1477 9.96C59.8997 10.064 59.6317 10.116 59.3437 10.116C59.0717 10.116 58.8117 10.064 58.5637 9.96C58.3237 9.856 58.1117 9.712 57.9277 9.528C57.7437 9.344 57.5957 9.132 57.4837 8.892C57.3797 8.652 57.3277 8.392 57.3277 8.112C57.3277 7.832 57.3797 7.572 57.4837 7.332C57.5957 7.084 57.7437 6.868 57.9277 6.684C58.1117 6.5 58.3237 6.356 58.5637 6.252C58.8117 6.148 59.0717 6.096 59.3437 6.096C59.6317 6.096 59.8997 6.148 60.1477 6.252C60.4037 6.356 60.6237 6.5 60.8077 6.684C60.9997 6.868 61.1517 7.084 61.2637 7.332C61.3757 7.572 61.4317 7.832 61.4317 8.112ZM75.0701 16.356C75.0701 16.012 75.0221 15.684 74.9261 15.372C74.8381 15.06 74.6941 14.784 74.4941 14.544C74.2941 14.304 74.0421 14.116 73.7381 13.98C73.4341 13.836 73.0701 13.764 72.6461 13.764C71.8541 13.764 71.2341 13.988 70.7861 14.436C70.3381 14.884 70.0461 15.524 69.9101 16.356H75.0701ZM69.8621 18.324C69.9661 19.484 70.2941 20.332 70.8461 20.868C71.4061 21.404 72.1341 21.672 73.0301 21.672C73.4861 21.672 73.8781 21.62 74.2061 21.516C74.5421 21.404 74.8341 21.284 75.0821 21.156C75.3381 21.02 75.5661 20.9 75.7661 20.796C75.9741 20.684 76.1781 20.628 76.3781 20.628C76.6341 20.628 76.8341 20.724 76.9781 20.916L77.9381 22.116C77.5861 22.524 77.1981 22.864 76.7741 23.136C76.3501 23.4 75.9101 23.612 75.4541 23.772C74.9981 23.924 74.5381 24.028 74.0741 24.084C73.6101 24.148 73.1621 24.18 72.7301 24.18C71.8661 24.18 71.0581 24.04 70.3061 23.76C69.5621 23.472 68.9101 23.052 68.3501 22.5C67.7981 21.94 67.3621 21.248 67.0421 20.424C66.7221 19.6 66.5621 18.644 66.5621 17.556C66.5621 16.716 66.6981 15.924 66.9701 15.18C67.2501 14.436 67.6501 13.788 68.1701 13.236C68.6901 12.684 69.3221 12.248 70.0661 11.928C70.8101 11.6 71.6501 11.436 72.5861 11.436C73.3781 11.436 74.1061 11.564 74.7701 11.82C75.4421 12.068 76.0181 12.432 76.4981 12.912C76.9861 13.392 77.3621 13.984 77.6261 14.688C77.8981 15.384 78.0341 16.18 78.0341 17.076C78.0341 17.324 78.0221 17.528 77.9981 17.688C77.9741 17.848 77.9341 17.976 77.8781 18.072C77.8221 18.168 77.7461 18.236 77.6501 18.276C77.5541 18.308 77.4301 18.324 77.2781 18.324H69.8621Z" fill="white"/>
</g>
<g filter="url(#filter1_d_19_425)">
<path d="M133.438 15.288C133.438 16.56 133.222 17.732 132.79 18.804C132.366 19.868 131.762 20.784 130.978 21.552C130.202 22.32 129.266 22.92 128.17 23.352C127.074 23.784 125.858 24 124.522 24H117.826V6.588H124.522C125.858 6.588 127.074 6.804 128.17 7.236C129.266 7.668 130.202 8.272 130.978 9.048C131.762 9.816 132.366 10.732 132.79 11.796C133.222 12.86 133.438 14.024 133.438 15.288ZM129.742 15.288C129.742 14.376 129.622 13.556 129.382 12.828C129.142 12.1 128.798 11.484 128.35 10.98C127.902 10.476 127.354 10.088 126.706 9.816C126.066 9.544 125.338 9.408 124.522 9.408H121.45V21.18H124.522C125.338 21.18 126.066 21.048 126.706 20.784C127.354 20.512 127.902 20.124 128.35 19.62C128.798 19.108 129.142 18.488 129.382 17.76C129.622 17.032 129.742 16.208 129.742 15.288ZM145.175 18.828C144.367 18.868 143.695 18.94 143.159 19.044C142.623 19.14 142.195 19.268 141.875 19.428C141.563 19.588 141.339 19.772 141.203 19.98C141.075 20.18 141.011 20.4 141.011 20.64C141.011 21.12 141.143 21.46 141.407 21.66C141.679 21.86 142.055 21.96 142.535 21.96C143.087 21.96 143.563 21.864 143.963 21.672C144.371 21.472 144.775 21.164 145.175 20.748V18.828ZM138.431 13.344C139.159 12.688 139.963 12.2 140.843 11.88C141.723 11.552 142.675 11.388 143.699 11.388C144.435 11.388 145.091 11.508 145.667 11.748C146.251 11.988 146.743 12.324 147.143 12.756C147.551 13.18 147.863 13.688 148.079 14.28C148.295 14.872 148.403 15.52 148.403 16.224V24H146.891C146.579 24 146.339 23.956 146.171 23.868C146.011 23.78 145.879 23.596 145.775 23.316L145.511 22.524C145.199 22.796 144.895 23.036 144.599 23.244C144.311 23.452 144.011 23.628 143.699 23.772C143.387 23.908 143.051 24.012 142.691 24.084C142.339 24.156 141.943 24.192 141.503 24.192C140.959 24.192 140.463 24.12 140.015 23.976C139.567 23.832 139.179 23.62 138.851 23.34C138.531 23.052 138.283 22.696 138.107 22.272C137.931 21.848 137.843 21.36 137.843 20.808C137.843 20.352 137.959 19.896 138.191 19.44C138.423 18.984 138.819 18.572 139.379 18.204C139.947 17.828 140.699 17.52 141.635 17.28C142.579 17.032 143.759 16.892 145.175 16.86V16.224C145.175 15.448 145.011 14.88 144.683 14.52C144.355 14.152 143.883 13.968 143.267 13.968C142.811 13.968 142.431 14.024 142.127 14.136C141.823 14.24 141.555 14.356 141.323 14.484C141.099 14.604 140.887 14.72 140.687 14.832C140.487 14.936 140.255 14.988 139.991 14.988C139.759 14.988 139.563 14.932 139.403 14.82C139.251 14.7 139.123 14.56 139.019 14.4L138.431 13.344ZM162.04 14.172C161.952 14.308 161.86 14.408 161.764 14.472C161.676 14.528 161.552 14.556 161.392 14.556C161.232 14.556 161.068 14.516 160.9 14.436C160.732 14.356 160.544 14.272 160.336 14.184C160.128 14.088 159.888 14 159.616 13.92C159.352 13.84 159.044 13.8 158.692 13.8C158.156 13.8 157.74 13.912 157.444 14.136C157.148 14.352 157 14.64 157 15C157 15.248 157.084 15.456 157.252 15.624C157.42 15.792 157.64 15.94 157.912 16.068C158.192 16.188 158.508 16.304 158.86 16.416C159.212 16.52 159.572 16.636 159.94 16.764C160.316 16.892 160.68 17.04 161.032 17.208C161.384 17.376 161.696 17.588 161.968 17.844C162.248 18.092 162.472 18.396 162.64 18.756C162.808 19.108 162.892 19.536 162.892 20.04C162.892 20.64 162.78 21.196 162.556 21.708C162.34 22.212 162.02 22.648 161.596 23.016C161.172 23.384 160.644 23.672 160.012 23.88C159.38 24.088 158.652 24.192 157.828 24.192C157.404 24.192 156.984 24.152 156.568 24.072C156.152 24 155.756 23.896 155.38 23.76C155.004 23.616 154.652 23.452 154.324 23.268C153.996 23.084 153.712 22.884 153.472 22.668L154.24 21.432C154.328 21.288 154.436 21.176 154.564 21.096C154.7 21.016 154.872 20.976 155.08 20.976C155.28 20.976 155.464 21.028 155.632 21.132C155.8 21.228 155.988 21.336 156.196 21.456C156.404 21.568 156.648 21.676 156.928 21.78C157.216 21.876 157.572 21.924 157.996 21.924C158.316 21.924 158.592 21.888 158.824 21.816C159.056 21.744 159.244 21.648 159.388 21.528C159.532 21.4 159.636 21.26 159.7 21.108C159.772 20.948 159.808 20.784 159.808 20.616C159.808 20.344 159.72 20.124 159.544 19.956C159.376 19.78 159.152 19.628 158.872 19.5C158.6 19.372 158.284 19.256 157.924 19.152C157.564 19.048 157.196 18.932 156.82 18.804C156.452 18.676 156.088 18.524 155.728 18.348C155.376 18.172 155.06 17.952 154.78 17.688C154.508 17.416 154.284 17.084 154.108 16.692C153.94 16.3 153.856 15.824 153.856 15.264C153.856 14.752 153.956 14.268 154.156 13.812C154.356 13.348 154.656 12.94 155.056 12.588C155.456 12.236 155.952 11.956 156.544 11.748C157.144 11.54 157.836 11.436 158.62 11.436C159.5 11.436 160.3 11.58 161.02 11.868C161.74 12.156 162.332 12.532 162.796 12.996L162.04 14.172ZM171.637 12.84C171.869 12.632 172.109 12.444 172.357 12.276C172.613 12.1 172.881 11.952 173.161 11.832C173.449 11.704 173.753 11.608 174.073 11.544C174.401 11.472 174.753 11.436 175.129 11.436C175.801 11.436 176.397 11.552 176.917 11.784C177.437 12.016 177.873 12.34 178.225 12.756C178.585 13.172 178.853 13.668 179.029 14.244C179.213 14.82 179.305 15.452 179.305 16.14V24H176.005V16.14C176.005 15.452 175.845 14.92 175.525 14.544C175.205 14.16 174.733 13.968 174.109 13.968C173.645 13.968 173.209 14.068 172.801 14.268C172.393 14.468 172.005 14.748 171.637 15.108V24H168.325V6.108H171.637V12.84Z" fill="white"/>
</g>
<mask id="path-3-inside-1_19_425" fill="white">
<path fill-rule="evenodd" clip-rule="evenodd" d="M104.51 17C105.028 16.9979 105.509 16.8381 105.908 16.566C106.119 16.4219 106.36 16.3165 106.615 16.3165H108.295H108.295C108.789 16.3165 109.206 16.0369 109.339 15.6537C109.399 15.6827 109.467 15.699 109.538 15.699C109.794 15.699 110.001 15.4919 110.001 15.2365V14.9282C110.001 14.6729 109.794 14.4658 109.538 14.4658C109.338 14.4658 109.167 14.5936 109.103 14.7723C108.904 14.5847 108.616 14.4668 108.295 14.4668H108.295H107.987C107.439 14.4668 107.012 14.0098 106.795 13.5076C106.411 12.6206 105.528 12 104.5 12C103.457 12 102.564 12.6383 102.188 13.5455C97.437 13.8122 94.766 13.8178 91.3605 13.5352C91.1095 13.4904 90.8491 13.4668 90.582 13.4668H90.5818C89.5692 13.4668 88.6516 13.8059 87.9836 14.3553C86.1297 14.3991 83.3058 17.4519 83.4997 17.7761C83.5746 17.9013 85.1555 17.6941 86.8852 16.6661C86.9427 17.9573 87.9531 19.0454 89.3475 19.4567V20.1737C89.3475 20.6845 89.7615 21.0985 90.2723 21.0985C90.7831 21.0985 91.1972 20.6845 91.1972 20.1737V19.6776C91.3715 19.6893 91.5789 19.7024 91.8142 19.7159V20.1737C91.8142 20.6845 92.2283 21.0985 92.7391 21.0985C93.2499 21.0985 93.664 20.6845 93.664 20.1737V19.7977C95.1253 19.8433 96.9156 19.853 98.5955 19.7375V20.1737C98.5955 20.6845 99.0096 21.0985 99.5204 21.0985C100.031 21.0985 100.445 20.6845 100.445 20.1737V19.5458C100.657 19.5149 100.863 19.4809 101.062 19.4437V20.1737C101.062 20.6845 101.476 21.0985 101.987 21.0985C102.498 21.0985 102.912 20.6845 102.912 20.1737V18.9049C103.229 18.7589 103.49 18.5913 103.682 18.3994C104.132 17.9495 104.387 17.4728 104.51 17Z"/>
</mask>
<path fill-rule="evenodd" clip-rule="evenodd" d="M104.51 17C105.028 16.9979 105.509 16.8381 105.908 16.566C106.119 16.4219 106.36 16.3165 106.615 16.3165H108.295H108.295C108.789 16.3165 109.206 16.0369 109.339 15.6537C109.399 15.6827 109.467 15.699 109.538 15.699C109.794 15.699 110.001 15.4919 110.001 15.2365V14.9282C110.001 14.6729 109.794 14.4658 109.538 14.4658C109.338 14.4658 109.167 14.5936 109.103 14.7723C108.904 14.5847 108.616 14.4668 108.295 14.4668H108.295H107.987C107.439 14.4668 107.012 14.0098 106.795 13.5076C106.411 12.6206 105.528 12 104.5 12C103.457 12 102.564 12.6383 102.188 13.5455C97.437 13.8122 94.766 13.8178 91.3605 13.5352C91.1095 13.4904 90.8491 13.4668 90.582 13.4668H90.5818C89.5692 13.4668 88.6516 13.8059 87.9836 14.3553C86.1297 14.3991 83.3058 17.4519 83.4997 17.7761C83.5746 17.9013 85.1555 17.6941 86.8852 16.6661C86.9427 17.9573 87.9531 19.0454 89.3475 19.4567V20.1737C89.3475 20.6845 89.7615 21.0985 90.2723 21.0985C90.7831 21.0985 91.1972 20.6845 91.1972 20.1737V19.6776C91.3715 19.6893 91.5789 19.7024 91.8142 19.7159V20.1737C91.8142 20.6845 92.2283 21.0985 92.7391 21.0985C93.2499 21.0985 93.664 20.6845 93.664 20.1737V19.7977C95.1253 19.8433 96.9156 19.853 98.5955 19.7375V20.1737C98.5955 20.6845 99.0096 21.0985 99.5204 21.0985C100.031 21.0985 100.445 20.6845 100.445 20.1737V19.5458C100.657 19.5149 100.863 19.4809 101.062 19.4437V20.1737C101.062 20.6845 101.476 21.0985 101.987 21.0985C102.498 21.0985 102.912 20.6845 102.912 20.1737V18.9049C103.229 18.7589 103.49 18.5913 103.682 18.3994C104.132 17.9495 104.387 17.4728 104.51 17Z" fill="white"/>
<path d="M105.908 16.566L105.626 16.1531L105.908 16.566ZM104.51 17L104.508 16.5L104.123 16.5015L104.026 16.8743L104.51 17ZM109.339 15.6537L109.555 15.2029L109.05 14.9607L108.866 15.4898L109.339 15.6537ZM109.103 14.7723L108.76 15.1362L109.316 15.6599L109.574 14.9409L109.103 14.7723ZM106.795 13.5076L106.336 13.7063L106.336 13.7063L106.795 13.5076ZM102.188 13.5455L102.216 14.0447L102.53 14.0271L102.651 13.7365L102.188 13.5455ZM91.3605 13.5352L91.2726 14.0274L91.2957 14.0315L91.3191 14.0334L91.3605 13.5352ZM90.5818 13.4668V12.9668H90.5818L90.5818 13.4668ZM87.9836 14.3553L87.9954 14.8552L88.1679 14.8511L88.3012 14.7415L87.9836 14.3553ZM83.4997 17.7761L83.9289 17.5195L83.9288 17.5194L83.4997 17.7761ZM86.8852 16.6661L87.3847 16.6439L87.3475 15.8097L86.6298 16.2363L86.8852 16.6661ZM89.3475 19.4567H89.8475V19.0828L89.4889 18.9771L89.3475 19.4567ZM91.1972 19.6776L91.2306 19.1788L90.6972 19.1431V19.6776H91.1972ZM91.8142 19.7159H92.3142V19.2437L91.8428 19.2167L91.8142 19.7159ZM93.664 19.7977L93.6796 19.298L93.164 19.2819V19.7977H93.664ZM98.5955 19.7375H99.0955V19.2019L98.5612 19.2387L98.5955 19.7375ZM100.445 19.5458L100.373 19.051L99.9452 19.1136V19.5458H100.445ZM101.062 19.4437H101.562V18.842L100.971 18.9522L101.062 19.4437ZM102.912 18.9049L102.703 18.4508L102.412 18.5847V18.9049H102.912ZM103.682 18.3994L104.036 18.7528V18.7528L103.682 18.3994ZM105.626 16.1531C105.307 16.3706 104.923 16.4983 104.508 16.5L104.512 17.5C105.133 17.4975 105.712 17.3056 106.19 16.979L105.626 16.1531ZM106.615 15.8165C106.222 15.8165 105.883 15.9774 105.626 16.1531L106.19 16.979C106.355 16.8664 106.497 16.8165 106.615 16.8165V15.8165ZM108.295 15.8165H106.615V16.8165H108.295V15.8165ZM108.295 15.8165H108.295V16.8165H108.295V15.8165ZM108.866 15.4898C108.815 15.6378 108.614 15.8165 108.295 15.8165V16.8165C108.963 16.8165 109.596 16.436 109.811 15.8176L108.866 15.4898ZM109.538 15.199C109.543 15.199 109.549 15.2002 109.555 15.2029L109.122 16.1045C109.249 16.1652 109.39 16.199 109.538 16.199V15.199ZM109.501 15.2365C109.501 15.2158 109.518 15.199 109.538 15.199V16.199C110.07 16.199 110.501 15.7681 110.501 15.2365H109.501ZM109.501 14.9282V15.2365H110.501V14.9282H109.501ZM109.538 14.9658C109.518 14.9658 109.501 14.949 109.501 14.9282H110.501C110.501 14.3967 110.07 13.9658 109.538 13.9658V14.9658ZM109.574 14.9409C109.571 14.9488 109.566 14.9546 109.561 14.9585C109.554 14.9631 109.546 14.9658 109.538 14.9658V13.9658C109.12 13.9658 108.765 14.2326 108.632 14.6037L109.574 14.9409ZM108.295 14.9668C108.495 14.9668 108.658 15.0405 108.76 15.1362L109.446 14.4083C109.149 14.1289 108.736 13.9668 108.295 13.9668V14.9668ZM108.295 14.9668H108.295V13.9668H108.295V14.9668ZM107.987 14.9668H108.295V13.9668H107.987V14.9668ZM106.336 13.7063C106.585 14.2803 107.142 14.9668 107.987 14.9668V13.9668C107.737 13.9668 107.44 13.7392 107.254 13.309L106.336 13.7063ZM104.5 12.5C105.321 12.5 106.029 12.9956 106.336 13.7063L107.254 13.309C106.794 12.2456 105.734 11.5 104.5 11.5V12.5ZM102.651 13.7365C102.951 13.0098 103.666 12.5 104.5 12.5V11.5C103.248 11.5 102.176 12.2668 101.726 13.3545L102.651 13.7365ZM91.3191 14.0334C94.7556 14.3187 97.4514 14.3122 102.216 14.0447L102.16 13.0463C97.4226 13.3122 94.7764 13.317 91.4018 13.0369L91.3191 14.0334ZM90.582 13.9668C90.8196 13.9668 91.0507 13.9878 91.2726 14.0274L91.4483 13.0429C91.1683 12.993 90.8785 12.9668 90.582 12.9668V13.9668ZM90.5818 13.9668H90.582V12.9668H90.5818V13.9668ZM88.3012 14.7415C88.8753 14.2694 89.6792 13.9668 90.5818 13.9668L90.5818 12.9668C89.4592 12.9669 88.4279 13.3425 87.666 13.9691L88.3012 14.7415ZM83.9288 17.5194C83.9798 17.6046 83.9893 17.684 83.9902 17.7285C83.991 17.7727 83.9838 17.8024 83.9816 17.8109C83.9775 17.8264 83.9779 17.8172 84 17.7766C84.0421 17.6991 84.1233 17.5793 84.248 17.4236C84.494 17.1167 84.8663 16.7237 85.3053 16.3348C85.7444 15.9458 86.2369 15.5728 86.721 15.2972C87.2143 15.0163 87.6528 14.8632 87.9954 14.8552L87.9718 13.8554C87.3874 13.8692 86.7777 14.1142 86.2262 14.4282C85.6655 14.7474 85.1166 15.166 84.6422 15.5863C84.1677 16.0066 83.7545 16.4403 83.4676 16.7983C83.3259 16.9751 83.2038 17.1473 83.1214 17.299C83.0812 17.373 83.0389 17.4627 83.0139 17.5585C82.9953 17.6299 82.9508 17.8323 83.0706 18.0327L83.9288 17.5194ZM86.6298 16.2363C85.8082 16.7245 85.024 17.0163 84.4437 17.1702C84.1525 17.2475 83.9213 17.2877 83.7691 17.3023C83.6906 17.3099 83.6483 17.3091 83.6357 17.3081C83.6276 17.3074 83.6477 17.308 83.6822 17.3189C83.6932 17.3224 83.8354 17.3631 83.9289 17.5195L83.0705 18.0326C83.1734 18.2046 83.3367 18.2584 83.3799 18.2721C83.4466 18.2933 83.51 18.3012 83.5558 18.3049C83.6507 18.3125 83.7577 18.308 83.8649 18.2977C84.0842 18.2766 84.3704 18.2242 84.7 18.1368C85.3613 17.9615 86.2324 17.6357 87.1406 17.096L86.6298 16.2363ZM89.4889 18.9771C88.2451 18.6103 87.4305 17.6703 87.3847 16.6439L86.3857 16.6884C86.455 18.2442 87.6611 19.4806 89.206 19.9363L89.4889 18.9771ZM89.8475 20.1737V19.4567H88.8475V20.1737H89.8475ZM90.2723 20.5985C90.0377 20.5985 89.8475 20.4083 89.8475 20.1737H88.8475C88.8475 20.9606 89.4854 21.5985 90.2723 21.5985V20.5985ZM90.6972 20.1737C90.6972 20.4083 90.507 20.5985 90.2723 20.5985V21.5985C91.0592 21.5985 91.6972 20.9606 91.6972 20.1737H90.6972ZM90.6972 19.6776V20.1737H91.6972V19.6776H90.6972ZM91.8428 19.2167C91.6092 19.2033 91.4034 19.1903 91.2306 19.1788L91.1638 20.1765C91.3396 20.1883 91.5486 20.2015 91.7856 20.2151L91.8428 19.2167ZM92.3142 20.1737V19.7159H91.3142V20.1737H92.3142ZM92.7391 20.5985C92.5045 20.5985 92.3142 20.4083 92.3142 20.1737H91.3142C91.3142 20.9606 91.9522 21.5985 92.7391 21.5985V20.5985ZM93.164 20.1737C93.164 20.4083 92.9737 20.5985 92.7391 20.5985V21.5985C93.526 21.5985 94.164 20.9606 94.164 20.1737H93.164ZM93.164 19.7977V20.1737H94.164V19.7977H93.164ZM98.5612 19.2387C96.9045 19.3525 95.1326 19.3433 93.6796 19.298L93.6484 20.2975C95.1181 20.3433 96.9267 20.3534 98.6298 20.2363L98.5612 19.2387ZM99.0955 20.1737V19.7375H98.0955V20.1737H99.0955ZM99.5204 20.5985C99.2857 20.5985 99.0955 20.4083 99.0955 20.1737H98.0955C98.0955 20.9606 98.7334 21.5985 99.5204 21.5985V20.5985ZM99.9452 20.1737C99.9452 20.4083 99.755 20.5985 99.5204 20.5985V21.5985C100.307 21.5985 100.945 20.9606 100.945 20.1737H99.9452ZM99.9452 19.5458V20.1737H100.945V19.5458H99.9452ZM100.971 18.9522C100.778 18.9881 100.578 19.021 100.373 19.051L100.518 20.0405C100.735 20.0088 100.947 19.9738 101.154 19.9353L100.971 18.9522ZM101.562 20.1737V19.4437H100.562V20.1737H101.562ZM101.987 20.5985C101.753 20.5985 101.562 20.4083 101.562 20.1737H100.562C100.562 20.9606 101.2 21.5985 101.987 21.5985V20.5985ZM102.412 20.1737C102.412 20.4083 102.222 20.5985 101.987 20.5985V21.5985C102.774 21.5985 103.412 20.9606 103.412 20.1737H102.412ZM102.412 18.9049V20.1737H103.412V18.9049H102.412ZM103.328 18.046C103.192 18.1827 102.986 18.3201 102.703 18.4508L103.121 19.3591C103.472 19.1977 103.789 19 104.036 18.7528L103.328 18.046ZM104.026 16.8743C103.926 17.2582 103.717 17.657 103.328 18.046L104.036 18.7528C104.546 18.2419 104.848 17.6873 104.994 17.1257L104.026 16.8743Z" fill="#005104" mask="url(#path-3-inside-1_19_425)"/>
<defs>
<filter id="filter0_d_19_425" x="0.823975" y="6.09601" width="77.2102" height="18.084" filterUnits="userSpaceOnUse" color-interpolation-filters="sRGB">
<feFlood flood-opacity="0" result="BackgroundImageFix"/>
<feColorMatrix in="SourceAlpha" type="matrix" values="0 0 0 0 0 0 0 0 0 0 0 0 0 0 0 0 0 0 127 0" result="hardAlpha"/>
<feOffset dx="-3"/>
<feComposite in2="hardAlpha" operator="out"/>
<feColorMatrix type="matrix" values="0 0 0 0 0 0 0 0 0 0.316667 0 0 0 0 0.0142323 0 0 0 1 0"/>
<feBlend mode="normal" in2="BackgroundImageFix" result="effect1_dropShadow_19_425"/>
<feBlend mode="normal" in="SourceGraphic" in2="effect1_dropShadow_19_425" result="shape"/>
</filter>
<filter id="filter1_d_19_425" x="114.826" y="6.108" width="64.479" height="18.084" filterUnits="userSpaceOnUse" color-interpolation-filters="sRGB">
<feFlood flood-opacity="0" result="BackgroundImageFix"/>
<feColorMatrix in="SourceAlpha" type="matrix" values="0 0 0 0 0 0 0 0 0 0 0 0 0 0 0 0 0 0 127 0" result="hardAlpha"/>
<feOffset dx="-3"/>
<feComposite in2="hardAlpha" operator="out"/>
<feColorMatrix type="matrix" values="0 0 0 0 0 0 0 0 0 0.316667 0 0 0 0 0.0142323 0 0 0 1 0"/>
<feBlend mode="normal" in2="BackgroundImageFix" result="effect1_dropShadow_19_425"/>
<feBlend mode="normal" in="SourceGraphic" in2="effect1_dropShadow_19_425" result="shape"/>
</filter>
</defs>
</svg>
