<svg width="17" height="17" viewBox="0 0 17 17" fill="none" xmlns="http://www.w3.org/2000/svg">
<path fill-rule="evenodd" clip-rule="evenodd" d="M13.201 4.17909L11.6991 5.43935L10.8049 0.367958L15.644 2.12923L14.2675 3.28425C15.3869 4.64885 16.0185 6.34934 16.0605 8.11552C16.1031 9.91107 15.5336 11.6677 14.4457 13.0968C13.3578 14.5258 11.8162 15.5423 10.0741 15.9792C8.33195 16.4161 6.49305 16.2474 4.85952 15.5009C3.22599 14.7543 1.895 13.4743 1.08527 11.8711C0.275529 10.268 0.0352127 8.43704 0.403805 6.67922C0.772398 4.9214 1.72797 3.34124 3.11351 2.1984C4.49905 1.05557 6.23212 0.418032 8.02796 0.390557L8.04926 1.78241C6.56931 1.80505 5.14108 2.33044 3.99926 3.27225C2.85743 4.21407 2.06995 5.51627 1.76619 6.96489C1.46243 8.41351 1.66048 9.92237 2.32778 11.2435C2.99508 12.5647 4.09195 13.6196 5.43815 14.2348C6.78434 14.8501 8.29978 14.9891 9.73544 14.629C11.1711 14.269 12.4416 13.4313 13.3381 12.2536C14.2347 11.0759 14.704 9.62826 14.6688 8.14855C14.6344 6.69821 14.1174 5.30162 13.201 4.17909Z" fill="#252525"/>
</svg>
